<?xml version="1.0" encoding="UTF-8"?>
<svg width="200px" height="200px" viewBox="0 0 200 200" version="1.1" xmlns="http://www.w3.org/2000/svg" xmlns:xlink="http://www.w3.org/1999/xlink">
    <title>Security Illustration</title>
    <defs>
        <circle id="path-1" cx="100" cy="100" r="100"></circle>
        <linearGradient x1="0%" y1="0%" x2="100%" y2="100%" id="linearGradient-3">
            <stop stop-color="#F5F9FF" offset="0%"></stop>
            <stop stop-color="#FFF8F0" offset="100%"></stop>
        </linearGradient>
        <!-- Subtle wave pattern -->
        <pattern id="wave-pattern" width="200" height="200" patternUnits="userSpaceOnUse">
            <path d="M0,100 C20,90 40,110 60,100 C80,90 100,110 120,100 C140,90 160,110 180,100 C200,90 220,110 240,100" 
                  stroke="#E3F2FD" stroke-width="1" fill="none" />
            <path d="M0,120 C20,110 40,130 60,120 C80,110 100,130 120,120 C140,110 160,130 180,120 C200,110 220,130 240,120" 
                  stroke="#FFF3E0" stroke-width="1" fill="none" />
        </pattern>
    </defs>
    <g id="Security-Illustration" stroke="none" stroke-width="1" fill="none" fill-rule="evenodd">
        <!-- Background with subtle pattern -->
        <g id="Background">
            <mask id="mask-2" fill="white">
                <use xlink:href="#path-1"></use>
            </mask>
            <use id="Circle" fill="url(#linearGradient-3)" xlink:href="#path-1"></use>
            <rect fill="url(#wave-pattern)" mask="url(#mask-2)" width="200" height="200"></rect>
        </g>
        
        <!-- Shield -->
        <g id="shield" transform="translate(70, 50)">
            <path d="M30,0 L60,0 L60,40 C60,60 30,80 30,80 C30,80 0,60 0,40 L0,0 L30,0 Z" 
                  fill="#FFFFFF" stroke="#2196F3" stroke-width="3" />
            
            <!-- Lock -->
            <rect x="20" y="35" width="20" height="20" rx="2" fill="#FF9800" />
            <rect x="25" y="25" width="10" height="15" rx="5" stroke="#FF9800" stroke-width="3" fill="none" />
            <circle cx="30" cy="45" r="3" fill="#FFFFFF" />
        </g>
        
        <!-- Categories -->
        <g id="categories" transform="translate(40, 140)">
            <!-- Category 1 -->
            <rect x="0" y="0" width="25" height="25" rx="4" fill="#2196F3" opacity="0.8" />
            <path d="M5,12.5 L20,12.5 M12.5,5 L12.5,20" stroke="#FFFFFF" stroke-width="2" stroke-linecap="round" />
            
            <!-- Category 2 -->
            <rect x="35" y="0" width="25" height="25" rx="4" fill="#FF9800" opacity="0.8" />
            <circle cx="47.5" cy="12.5" r="7" stroke="#FFFFFF" stroke-width="2" fill="none" />
            
            <!-- Category 3 -->
            <rect x="70" y="0" width="25" height="25" rx="4" fill="#4CAF50" opacity="0.8" />
            <path d="M77.5,12.5 L87.5,12.5 M82.5,7.5 L82.5,17.5" stroke="#FFFFFF" stroke-width="2" stroke-linecap="round" />
            
            <!-- Category 4 -->
            <rect x="105" y="0" width="25" height="25" rx="4" fill="#9C27B0" opacity="0.8" />
            <path d="M112.5,7.5 L122.5,17.5 M112.5,17.5 L122.5,7.5" stroke="#FFFFFF" stroke-width="2" stroke-linecap="round" />
        </g>
        
        <!-- Connection Lines -->
        <path d="M100,90 L100,130" stroke="#2196F3" stroke-width="2" stroke-dasharray="4,2" />
        <circle cx="100" cy="130" r="5" fill="#2196F3" />
    </g>
</svg> 